<?xml version="1.0" standalone="no"?>
<!DOCTYPE svg PUBLIC "-//W3C//DTD SVG 20010904//EN"
 "http://www.w3.org/TR/2001/REC-SVG-20010904/DTD/svg10.dtd">
<svg version="1.0" xmlns="http://www.w3.org/2000/svg"
 width="387.000000pt" height="387.000000pt" viewBox="0 0 387.000000 387.000000"
 preserveAspectRatio="xMidYMid meet">
<metadata>
Created by potrace 1.11, written by Peter Selinger 2001-2013
</metadata>
<g transform="translate(0.000000,387.000000) scale(0.100000,-0.100000)"
fill="#000000" stroke="none">
<path d="M3054 3548 c-187 -149 -408 -327 -491 -394 l-153 -122 69 -86 69 -86
163 131 c90 72 180 144 199 160 79 64 305 245 329 264 14 11 85 68 158 127
l132 106 -68 86 -68 85 -339 -271z"/>
<path d="M882 2906 c-4 -6 -7 -468 -7 -1026 l1 -1015 440 -2 c482 -3 532 2
649 56 69 32 160 111 204 178 43 65 88 187 105 286 34 192 39 700 11 947 -39
329 -209 533 -481 576 -81 12 -913 12 -922 0z m741 -392 c77 -27 108 -101 122
-291 6 -78 6 -603 0 -678 -7 -84 -26 -184 -36 -191 -5 -3 -9 -12 -9 -21 0 -9
-14 -29 -31 -44 -35 -31 -80 -41 -188 -43 l-66 -1 -2 643 -1 643 86 -2 c48 -1
104 -8 125 -15z"/>
<path d="M2589 2035 c-3 -25 -5 -191 -2 -200 2 -7 221 -10 636 -10 l632 0 3
110 3 110 -636 0 c-418 0 -635 -3 -636 -10z"/>
<path d="M2607 922 l-67 -85 59 -46 c73 -58 399 -320 426 -343 11 -9 127 -102
259 -207 l238 -191 61 78 c34 42 65 80 70 83 10 7 -3 21 -59 64 -21 17 -100
80 -175 140 -157 126 -181 146 -228 183 -29 23 -55 44 -131 105 -145 117 -367
294 -375 299 -5 3 -40 -33 -78 -80z"/>
</g>
</svg>
